<mxfile host="app.diagrams.net" modified="2024-02-06T07:57:09.438Z" agent="Mozilla/5.0 (Windows NT 10.0; Win64; x64; rv:122.0) Gecko/20100101 Firefox/122.0" etag="iSP-2K4mCFFNorm6_juo" version="23.1.1" type="device">
  <diagram name="Page-1" id="ht8x5zMkZCG5KYTKWnBn">
    <mxGraphModel dx="1050" dy="538" grid="1" gridSize="10" guides="1" tooltips="1" connect="1" arrows="1" fold="1" page="1" pageScale="1" pageWidth="827" pageHeight="1169" math="0" shadow="0">
      <root>
        <mxCell id="0" />
        <mxCell id="1" parent="0" />
        <mxCell id="5JY1fL8VnBt2DN9yqQQH-1" value="Class User" style="swimlane;fontStyle=1;align=center;verticalAlign=top;childLayout=stackLayout;horizontal=1;startSize=26;horizontalStack=0;resizeParent=1;resizeParentMax=0;resizeLast=0;collapsible=1;marginBottom=0;whiteSpace=wrap;html=1;fillColor=#1ba1e2;strokeColor=#006EAF;fontColor=#ffffff;" vertex="1" parent="1">
          <mxGeometry x="120" y="40" width="160" height="124" as="geometry" />
        </mxCell>
        <mxCell id="5JY1fL8VnBt2DN9yqQQH-2" value="&lt;div&gt;- login : string&lt;/div&gt;&lt;div&gt;- password : string&lt;/div&gt;&lt;div&gt;- active : boolean&lt;/div&gt;&lt;div&gt;&lt;br&gt;&lt;/div&gt;" style="text;strokeColor=none;fillColor=none;align=left;verticalAlign=top;spacingLeft=4;spacingRight=4;overflow=hidden;rotatable=0;points=[[0,0.5],[1,0.5]];portConstraint=eastwest;whiteSpace=wrap;html=1;" vertex="1" parent="5JY1fL8VnBt2DN9yqQQH-1">
          <mxGeometry y="26" width="160" height="64" as="geometry" />
        </mxCell>
        <mxCell id="5JY1fL8VnBt2DN9yqQQH-3" value="" style="line;strokeWidth=1;fillColor=none;align=left;verticalAlign=middle;spacingTop=-1;spacingLeft=3;spacingRight=3;rotatable=0;labelPosition=right;points=[];portConstraint=eastwest;strokeColor=inherit;" vertex="1" parent="5JY1fL8VnBt2DN9yqQQH-1">
          <mxGeometry y="90" width="160" height="8" as="geometry" />
        </mxCell>
        <mxCell id="5JY1fL8VnBt2DN9yqQQH-4" value="+ User()" style="text;strokeColor=none;fillColor=none;align=left;verticalAlign=top;spacingLeft=4;spacingRight=4;overflow=hidden;rotatable=0;points=[[0,0.5],[1,0.5]];portConstraint=eastwest;whiteSpace=wrap;html=1;" vertex="1" parent="5JY1fL8VnBt2DN9yqQQH-1">
          <mxGeometry y="98" width="160" height="26" as="geometry" />
        </mxCell>
        <mxCell id="5JY1fL8VnBt2DN9yqQQH-5" value="Class Customer" style="swimlane;fontStyle=1;align=center;verticalAlign=top;childLayout=stackLayout;horizontal=1;startSize=26;horizontalStack=0;resizeParent=1;resizeParentMax=0;resizeLast=0;collapsible=1;marginBottom=0;whiteSpace=wrap;html=1;fillColor=#1ba1e2;fontColor=#ffffff;strokeColor=#006EAF;" vertex="1" parent="1">
          <mxGeometry x="120" y="280" width="160" height="164" as="geometry" />
        </mxCell>
        <mxCell id="5JY1fL8VnBt2DN9yqQQH-6" value="&lt;div&gt;- Id : number&lt;/div&gt;&lt;div&gt;- name : string&lt;/div&gt;&lt;div&gt;- surname : string&lt;/div&gt;&lt;div&gt;- email : string&lt;/div&gt;&lt;div&gt;- address : string&lt;/div&gt;&lt;div&gt;- phone : string&lt;br&gt;&lt;/div&gt;" style="text;strokeColor=none;fillColor=none;align=left;verticalAlign=top;spacingLeft=4;spacingRight=4;overflow=hidden;rotatable=0;points=[[0,0.5],[1,0.5]];portConstraint=eastwest;whiteSpace=wrap;html=1;" vertex="1" parent="5JY1fL8VnBt2DN9yqQQH-5">
          <mxGeometry y="26" width="160" height="104" as="geometry" />
        </mxCell>
        <mxCell id="5JY1fL8VnBt2DN9yqQQH-7" value="" style="line;strokeWidth=1;fillColor=none;align=left;verticalAlign=middle;spacingTop=-1;spacingLeft=3;spacingRight=3;rotatable=0;labelPosition=right;points=[];portConstraint=eastwest;strokeColor=inherit;" vertex="1" parent="5JY1fL8VnBt2DN9yqQQH-5">
          <mxGeometry y="130" width="160" height="8" as="geometry" />
        </mxCell>
        <mxCell id="5JY1fL8VnBt2DN9yqQQH-8" value="+ Customer ()" style="text;strokeColor=none;fillColor=none;align=left;verticalAlign=top;spacingLeft=4;spacingRight=4;overflow=hidden;rotatable=0;points=[[0,0.5],[1,0.5]];portConstraint=eastwest;whiteSpace=wrap;html=1;" vertex="1" parent="5JY1fL8VnBt2DN9yqQQH-5">
          <mxGeometry y="138" width="160" height="26" as="geometry" />
        </mxCell>
        <mxCell id="5JY1fL8VnBt2DN9yqQQH-19" value="" style="endArrow=none;endFill=0;html=1;edgeStyle=orthogonalEdgeStyle;align=left;verticalAlign=top;rounded=0;entryX=0.5;entryY=0;entryDx=0;entryDy=0;exitX=0.513;exitY=1.231;exitDx=0;exitDy=0;exitPerimeter=0;" edge="1" parent="1" source="5JY1fL8VnBt2DN9yqQQH-4" target="5JY1fL8VnBt2DN9yqQQH-5">
          <mxGeometry x="-1" relative="1" as="geometry">
            <mxPoint x="130" y="200" as="sourcePoint" />
            <mxPoint x="290" y="200" as="targetPoint" />
            <Array as="points">
              <mxPoint x="200" y="170" />
            </Array>
          </mxGeometry>
        </mxCell>
        <mxCell id="5JY1fL8VnBt2DN9yqQQH-20" value="&lt;font style=&quot;font-size: 14px;&quot;&gt;&lt;b&gt;&lt;font style=&quot;font-size: 14px;&quot;&gt;0.. 1&lt;/font&gt;&lt;/b&gt;&lt;/font&gt;" style="edgeLabel;resizable=0;html=1;align=left;verticalAlign=bottom;" connectable="0" vertex="1" parent="5JY1fL8VnBt2DN9yqQQH-19">
          <mxGeometry x="-1" relative="1" as="geometry">
            <mxPoint x="8" y="20" as="offset" />
          </mxGeometry>
        </mxCell>
        <mxCell id="5JY1fL8VnBt2DN9yqQQH-25" value="&lt;b style=&quot;font-size: 14px;&quot;&gt;0.. *&lt;br&gt;&lt;/b&gt;" style="edgeLabel;resizable=0;html=1;align=left;verticalAlign=bottom;" connectable="0" vertex="1" parent="1">
          <mxGeometry x="220.07999999999993" y="200.00599999999997" as="geometry">
            <mxPoint x="-11" y="68" as="offset" />
          </mxGeometry>
        </mxCell>
        <mxCell id="5JY1fL8VnBt2DN9yqQQH-26" value="Class Order" style="swimlane;fontStyle=1;align=center;verticalAlign=top;childLayout=stackLayout;horizontal=1;startSize=26;horizontalStack=0;resizeParent=1;resizeParentMax=0;resizeLast=0;collapsible=1;marginBottom=0;whiteSpace=wrap;html=1;fillColor=#1ba1e2;fontColor=#ffffff;strokeColor=#006EAF;" vertex="1" parent="1">
          <mxGeometry x="120" y="560" width="160" height="124" as="geometry" />
        </mxCell>
        <mxCell id="5JY1fL8VnBt2DN9yqQQH-27" value="&lt;div&gt;- Id : number&lt;/div&gt;&lt;div&gt;- date: Date&lt;/div&gt;&lt;div&gt;- totalAmount: number&lt;/div&gt;&lt;div&gt;&lt;br&gt;&lt;/div&gt;&lt;div&gt;&lt;br&gt;&lt;/div&gt;&lt;div&gt;&lt;br&gt;&lt;/div&gt;" style="text;strokeColor=none;fillColor=none;align=left;verticalAlign=top;spacingLeft=4;spacingRight=4;overflow=hidden;rotatable=0;points=[[0,0.5],[1,0.5]];portConstraint=eastwest;whiteSpace=wrap;html=1;" vertex="1" parent="5JY1fL8VnBt2DN9yqQQH-26">
          <mxGeometry y="26" width="160" height="64" as="geometry" />
        </mxCell>
        <mxCell id="5JY1fL8VnBt2DN9yqQQH-28" value="" style="line;strokeWidth=1;fillColor=none;align=left;verticalAlign=middle;spacingTop=-1;spacingLeft=3;spacingRight=3;rotatable=0;labelPosition=right;points=[];portConstraint=eastwest;strokeColor=inherit;" vertex="1" parent="5JY1fL8VnBt2DN9yqQQH-26">
          <mxGeometry y="90" width="160" height="8" as="geometry" />
        </mxCell>
        <mxCell id="5JY1fL8VnBt2DN9yqQQH-29" value="+ Order ()" style="text;strokeColor=none;fillColor=none;align=left;verticalAlign=top;spacingLeft=4;spacingRight=4;overflow=hidden;rotatable=0;points=[[0,0.5],[1,0.5]];portConstraint=eastwest;whiteSpace=wrap;html=1;" vertex="1" parent="5JY1fL8VnBt2DN9yqQQH-26">
          <mxGeometry y="98" width="160" height="26" as="geometry" />
        </mxCell>
        <mxCell id="5JY1fL8VnBt2DN9yqQQH-30" value="" style="endArrow=none;endFill=0;html=1;edgeStyle=orthogonalEdgeStyle;align=left;verticalAlign=top;rounded=0;entryX=0.5;entryY=0;entryDx=0;entryDy=0;exitX=0.513;exitY=1.231;exitDx=0;exitDy=0;exitPerimeter=0;" edge="1" parent="1">
          <mxGeometry x="-1" relative="1" as="geometry">
            <mxPoint x="201" y="450" as="sourcePoint" />
            <mxPoint x="199" y="560" as="targetPoint" />
            <Array as="points">
              <mxPoint x="199" y="450" />
            </Array>
          </mxGeometry>
        </mxCell>
        <mxCell id="5JY1fL8VnBt2DN9yqQQH-31" value="&lt;font style=&quot;font-size: 14px;&quot;&gt;&lt;b&gt;&lt;font style=&quot;font-size: 14px;&quot;&gt;1&lt;/font&gt;&lt;/b&gt;&lt;/font&gt;" style="edgeLabel;resizable=0;html=1;align=left;verticalAlign=bottom;" connectable="0" vertex="1" parent="5JY1fL8VnBt2DN9yqQQH-30">
          <mxGeometry x="-1" relative="1" as="geometry">
            <mxPoint x="8" y="20" as="offset" />
          </mxGeometry>
        </mxCell>
        <mxCell id="5JY1fL8VnBt2DN9yqQQH-32" value="&lt;b style=&quot;font-size: 14px;&quot;&gt;0.. *&lt;br&gt;&lt;/b&gt;" style="text;whiteSpace=wrap;html=1;" vertex="1" parent="1">
          <mxGeometry x="210" y="530" width="60" height="40" as="geometry" />
        </mxCell>
        <mxCell id="5JY1fL8VnBt2DN9yqQQH-33" value="Class Formation" style="swimlane;fontStyle=1;align=center;verticalAlign=top;childLayout=stackLayout;horizontal=1;startSize=26;horizontalStack=0;resizeParent=1;resizeParentMax=0;resizeLast=0;collapsible=1;marginBottom=0;whiteSpace=wrap;html=1;fillColor=#1ba1e2;fontColor=#ffffff;strokeColor=#006EAF;" vertex="1" parent="1">
          <mxGeometry x="550" y="560" width="160" height="180" as="geometry" />
        </mxCell>
        <mxCell id="5JY1fL8VnBt2DN9yqQQH-34" value="&lt;div&gt;- Id : number&lt;/div&gt;&lt;div&gt;- name : string&lt;/div&gt;&lt;div&gt;- description : string&lt;/div&gt;&lt;div&gt;- duration : number&lt;/div&gt;&lt;div&gt;- prÃ©sentiel : boolean&lt;br&gt;&lt;/div&gt;&lt;div&gt;- totalAmount: number&lt;/div&gt;&lt;div&gt;&lt;br&gt;&lt;/div&gt;&lt;div&gt;&lt;br&gt;&lt;/div&gt;&lt;div&gt;&lt;br&gt;&lt;/div&gt;" style="text;strokeColor=none;fillColor=none;align=left;verticalAlign=top;spacingLeft=4;spacingRight=4;overflow=hidden;rotatable=0;points=[[0,0.5],[1,0.5]];portConstraint=eastwest;whiteSpace=wrap;html=1;" vertex="1" parent="5JY1fL8VnBt2DN9yqQQH-33">
          <mxGeometry y="26" width="160" height="114" as="geometry" />
        </mxCell>
        <mxCell id="5JY1fL8VnBt2DN9yqQQH-35" value="" style="line;strokeWidth=1;fillColor=none;align=left;verticalAlign=middle;spacingTop=-1;spacingLeft=3;spacingRight=3;rotatable=0;labelPosition=right;points=[];portConstraint=eastwest;strokeColor=inherit;" vertex="1" parent="5JY1fL8VnBt2DN9yqQQH-33">
          <mxGeometry y="140" width="160" height="8" as="geometry" />
        </mxCell>
        <mxCell id="5JY1fL8VnBt2DN9yqQQH-36" value="+ Formation()" style="text;strokeColor=none;fillColor=none;align=left;verticalAlign=top;spacingLeft=4;spacingRight=4;overflow=hidden;rotatable=0;points=[[0,0.5],[1,0.5]];portConstraint=eastwest;whiteSpace=wrap;html=1;" vertex="1" parent="5JY1fL8VnBt2DN9yqQQH-33">
          <mxGeometry y="148" width="160" height="32" as="geometry" />
        </mxCell>
        <mxCell id="5JY1fL8VnBt2DN9yqQQH-37" value="Class Category" style="swimlane;fontStyle=1;align=center;verticalAlign=top;childLayout=stackLayout;horizontal=1;startSize=26;horizontalStack=0;resizeParent=1;resizeParentMax=0;resizeLast=0;collapsible=1;marginBottom=0;whiteSpace=wrap;html=1;fillColor=#1ba1e2;fontColor=#ffffff;strokeColor=#006EAF;" vertex="1" parent="1">
          <mxGeometry x="550" y="280" width="160" height="130" as="geometry" />
        </mxCell>
        <mxCell id="5JY1fL8VnBt2DN9yqQQH-38" value="&lt;div&gt;- Id : number&lt;/div&gt;&lt;div&gt;- name : string&lt;/div&gt;&lt;div&gt;- description : string&lt;/div&gt;&lt;div&gt;&lt;br&gt;&lt;/div&gt;&lt;div&gt;&lt;br&gt;&lt;/div&gt;&lt;div&gt;&lt;br&gt;&lt;/div&gt;&lt;div&gt;&lt;br&gt;&lt;/div&gt;" style="text;strokeColor=none;fillColor=none;align=left;verticalAlign=top;spacingLeft=4;spacingRight=4;overflow=hidden;rotatable=0;points=[[0,0.5],[1,0.5]];portConstraint=eastwest;whiteSpace=wrap;html=1;" vertex="1" parent="5JY1fL8VnBt2DN9yqQQH-37">
          <mxGeometry y="26" width="160" height="64" as="geometry" />
        </mxCell>
        <mxCell id="5JY1fL8VnBt2DN9yqQQH-39" value="" style="line;strokeWidth=1;fillColor=none;align=left;verticalAlign=middle;spacingTop=-1;spacingLeft=3;spacingRight=3;rotatable=0;labelPosition=right;points=[];portConstraint=eastwest;strokeColor=inherit;" vertex="1" parent="5JY1fL8VnBt2DN9yqQQH-37">
          <mxGeometry y="90" width="160" height="8" as="geometry" />
        </mxCell>
        <mxCell id="5JY1fL8VnBt2DN9yqQQH-40" value="+ Category ()" style="text;strokeColor=none;fillColor=none;align=left;verticalAlign=top;spacingLeft=4;spacingRight=4;overflow=hidden;rotatable=0;points=[[0,0.5],[1,0.5]];portConstraint=eastwest;whiteSpace=wrap;html=1;" vertex="1" parent="5JY1fL8VnBt2DN9yqQQH-37">
          <mxGeometry y="98" width="160" height="32" as="geometry" />
        </mxCell>
        <mxCell id="5JY1fL8VnBt2DN9yqQQH-41" value="" style="endArrow=none;endFill=0;html=1;edgeStyle=orthogonalEdgeStyle;align=left;verticalAlign=top;rounded=0;exitX=1;exitY=0.766;exitDx=0;exitDy=0;exitPerimeter=0;entryX=0.25;entryY=0;entryDx=0;entryDy=0;" edge="1" parent="1" source="5JY1fL8VnBt2DN9yqQQH-27" target="5JY1fL8VnBt2DN9yqQQH-43">
          <mxGeometry x="-1" relative="1" as="geometry">
            <mxPoint x="382" y="585" as="sourcePoint" />
            <mxPoint x="540" y="640" as="targetPoint" />
            <Array as="points">
              <mxPoint x="280" y="640" />
            </Array>
          </mxGeometry>
        </mxCell>
        <mxCell id="5JY1fL8VnBt2DN9yqQQH-42" value="&lt;font style=&quot;font-size: 14px;&quot;&gt;&lt;b&gt;&lt;font style=&quot;font-size: 14px;&quot;&gt;1&lt;/font&gt;&lt;/b&gt;&lt;/font&gt;" style="edgeLabel;resizable=0;html=1;align=left;verticalAlign=bottom;" connectable="0" vertex="1" parent="5JY1fL8VnBt2DN9yqQQH-41">
          <mxGeometry x="-1" relative="1" as="geometry">
            <mxPoint x="8" y="20" as="offset" />
          </mxGeometry>
        </mxCell>
        <mxCell id="5JY1fL8VnBt2DN9yqQQH-43" value="&lt;b style=&quot;font-size: 14px;&quot;&gt;0.. *&lt;br&gt;&lt;/b&gt;" style="text;whiteSpace=wrap;html=1;" vertex="1" parent="1">
          <mxGeometry x="510" y="640" width="160" height="40" as="geometry" />
        </mxCell>
        <mxCell id="5JY1fL8VnBt2DN9yqQQH-45" value="" style="endArrow=none;endFill=0;html=1;edgeStyle=orthogonalEdgeStyle;align=left;verticalAlign=top;rounded=0;exitX=0.563;exitY=1.05;exitDx=0;exitDy=0;exitPerimeter=0;entryX=0.563;entryY=0;entryDx=0;entryDy=0;entryPerimeter=0;strokeWidth=1;" edge="1" parent="1" source="5JY1fL8VnBt2DN9yqQQH-40" target="5JY1fL8VnBt2DN9yqQQH-33">
          <mxGeometry x="-1" relative="1" as="geometry">
            <mxPoint x="414" y="490" as="sourcePoint" />
            <mxPoint x="684" y="495" as="targetPoint" />
            <Array as="points">
              <mxPoint x="640" y="490" />
              <mxPoint x="640" y="490" />
            </Array>
          </mxGeometry>
        </mxCell>
        <mxCell id="5JY1fL8VnBt2DN9yqQQH-46" value="&lt;b&gt;0 .. 1&lt;br&gt;&lt;/b&gt;" style="edgeLabel;resizable=0;html=1;align=left;verticalAlign=bottom;" connectable="0" vertex="1" parent="5JY1fL8VnBt2DN9yqQQH-45">
          <mxGeometry x="-1" relative="1" as="geometry">
            <mxPoint x="8" y="20" as="offset" />
          </mxGeometry>
        </mxCell>
        <mxCell id="5JY1fL8VnBt2DN9yqQQH-47" value="&lt;font style=&quot;font-size: 14px;&quot;&gt;&lt;b&gt;0 .. *&lt;br&gt;&lt;/b&gt;&lt;/font&gt;" style="edgeLabel;resizable=0;html=1;align=left;verticalAlign=bottom;" connectable="0" vertex="1" parent="1">
          <mxGeometry x="649.9999999999999" y="550" as="geometry" />
        </mxCell>
      </root>
    </mxGraphModel>
  </diagram>
</mxfile>
